<svg width="40" height="40" viewBox="0 0 40 40" fill="none" xmlns="http://www.w3.org/2000/svg">
<g id="Metamask">
<path id="Vector" d="M37.6685 3.14258L22.6514 14.2512L25.4514 7.70258L37.6685 3.14258Z" fill="#E17726" stroke="#E17726" stroke-width="0.25" stroke-linecap="round" stroke-linejoin="round"/>
<path id="Vector_2" d="M3.03999 3.14258L17.92 14.3426L15.2571 7.71401L3.03999 3.14258ZM32.2628 28.8912L28.2628 34.994L36.8228 37.3483L39.2686 29.0283L32.2628 28.8912ZM1.45142 29.0283L3.8857 37.3483L12.4228 34.994L8.4457 28.8912L1.45142 29.0283Z" fill="#E27625" stroke="#E27625" stroke-width="0.25" stroke-linecap="round" stroke-linejoin="round"/>
<path id="Vector_3" d="M11.9658 18.5826L9.58862 22.1712L18.0458 22.5598L17.7715 13.4512L11.9658 18.5941V18.5826ZM28.7429 18.5941L22.8458 13.3369L22.6515 22.5598L31.1086 22.1712L28.7429 18.5941ZM12.4229 34.9941L17.5543 32.5255L13.1429 29.0969L12.4229 34.9941ZM23.1658 32.5141L28.2629 34.9941L27.5772 29.0855L23.1658 32.5141Z" fill="#E27625" stroke="#E27625" stroke-width="0.25" stroke-linecap="round" stroke-linejoin="round"/>
<path id="Vector_4" d="M28.2628 34.994L23.1657 32.5254L23.5771 35.8397L23.5314 37.2454L28.2628 34.994ZM12.4229 34.994L17.1771 37.2454L17.1429 35.8397L17.5543 32.5254L12.4229 34.994Z" fill="#D5BFB2" stroke="#D5BFB2" stroke-width="0.25" stroke-linecap="round" stroke-linejoin="round"/>
<path id="Vector_5" d="M17.2571 26.8916L13.0286 25.6573L16.0229 24.2858L17.2686 26.8916H17.2571ZM23.44 26.8916L24.6971 24.2744L27.7029 25.6458L23.44 26.903V26.8916Z" fill="#233447" stroke="#233447" stroke-width="0.25" stroke-linecap="round" stroke-linejoin="round"/>
<path id="Vector_6" d="M12.4229 34.9947L13.1658 28.8919L8.4458 29.029L12.4229 34.9947ZM27.5429 28.8919L28.2629 34.9947L32.2629 29.029L27.5429 28.8919ZM31.1201 22.1719L22.6629 22.5604L23.4401 26.9033L24.6972 24.2747L27.7029 25.6462L31.1201 22.1719ZM13.0287 25.6576L16.0229 24.2862L17.2687 26.8919L18.0572 22.549L9.60009 22.1719L13.0287 25.6576Z" fill="#CC6228" stroke="#CC6228" stroke-width="0.25" stroke-linecap="round" stroke-linejoin="round"/>
<path id="Vector_7" d="M9.6001 22.1719L13.143 29.0862L13.0287 25.6576L9.6001 22.1719ZM27.703 25.6576L27.5658 29.0862L31.1087 22.1719L27.703 25.6576ZM18.0572 22.5604L17.2572 26.9033L18.263 32.0233L18.4915 25.269L18.0572 22.5604ZM22.6515 22.5604L22.2401 25.2576L22.4458 32.0233L23.4401 26.8919L22.6515 22.549V22.5604Z" fill="#E27525" stroke="#E27525" stroke-width="0.25" stroke-linecap="round" stroke-linejoin="round"/>
<path id="Vector_8" d="M23.4399 26.8915L22.4457 32.0229L23.1657 32.5258L27.5657 29.0972L27.7028 25.6572L23.4399 26.8915ZM13.0285 25.6572L13.1428 29.0858L17.5542 32.5144L18.2628 32.0229L17.2685 26.8915L13.0171 25.6572H13.0285Z" fill="#F5841F" stroke="#F5841F" stroke-width="0.25" stroke-linecap="round" stroke-linejoin="round"/>
<path id="Vector_9" d="M23.5429 37.2456L23.5771 35.8399L23.1886 35.5199H17.52L17.1429 35.8399L17.1771 37.2456L12.4229 34.9941L14.0914 36.3656L17.4629 38.6856H23.2343L26.6171 36.3541L28.2628 34.9941L23.5314 37.2456H23.5429Z" fill="#C0AC9D" stroke="#C0AC9D" stroke-width="0.25" stroke-linecap="round" stroke-linejoin="round"/>
<path id="Vector_10" d="M23.1657 32.5149L22.4457 32.0234H18.2628L17.5543 32.5263L17.1428 35.8406L17.52 35.5206H23.1885L23.5771 35.8406L23.1657 32.5263V32.5149Z" fill="#161616" stroke="#161616" stroke-width="0.25" stroke-linecap="round" stroke-linejoin="round"/>
<path id="Vector_11" d="M38.3085 14.9712L39.5657 8.85686L37.6685 3.14258L23.1542 13.8854L28.7428 18.5826L36.6285 20.8797L38.3657 18.8569L37.6114 18.3083L38.8114 17.2112L37.8971 16.5026L39.0971 15.5883L38.2971 14.9712H38.3085ZM1.14282 8.84544L2.42282 14.9712L1.59997 15.5769L2.82282 16.4912L1.90854 17.2112L3.09711 18.3083L2.34282 18.8569L4.07996 20.8797L11.9657 18.594L17.5542 13.874L3.03997 3.14258L1.14282 8.84544Z" fill="#763E1A" stroke="#763E1A" stroke-width="0.25" stroke-linecap="round" stroke-linejoin="round"/>
<path id="Vector_12" d="M36.6286 20.8803L28.7428 18.5946L31.12 22.1717L27.5771 29.086L32.2628 29.0288H39.2686L36.6286 20.8803ZM11.9657 18.5831L4.07999 20.8803L1.45142 29.0288H8.45713L13.1428 29.086L9.59999 22.1717L11.9771 18.5831H11.9657ZM22.6514 22.5603L23.1657 13.8746L25.4514 7.70312H15.2571L17.5428 13.8746L18.0571 22.5603L18.2514 25.2803V32.0231H22.4457L22.4686 25.2803L22.6514 22.5603Z" fill="#F5841F" stroke="#F5841F" stroke-width="0.25" stroke-linecap="round" stroke-linejoin="round"/>
</g>
</svg>